<svg width="38" height="145" viewBox="0 0 38 145" fill="none" xmlns="http://www.w3.org/2000/svg">
<path d="M0 143.995L35.9987 144.306L0.311328 107.996L0 143.995Z" fill="#BBDC71"/>
<path d="M36.31 108.307L0.311327 107.996L35.9987 144.306L36.31 108.307Z" fill="#85AF2F"/>
<rect x="7.262" y="136.857" width="21.6" height="21.6" transform="rotate(-89.5045 7.262 136.857)" fill="#99CC33"/>
<path d="M0 143.995L35.9987 144.306L0.311328 107.996L0 143.995Z" fill="#85DEC0"/>
<path d="M36.31 108.307L0.311327 107.996L35.9987 144.306L36.31 108.307Z" fill="#26946F"/>
<rect x="7.262" y="136.857" width="21.6" height="21.6" transform="rotate(-89.5045 7.262 136.857)" fill="#33CB98"/>
<path d="M0.311325 107.996L36.31 108.307L0.622653 71.9974L0.311325 107.996Z" fill="#BBDC71"/>
<path d="M36.6213 72.3088L0.622652 71.9975L36.31 108.307L36.6213 72.3088Z" fill="#85AF2F"/>
<rect x="7.57333" y="100.859" width="21.6" height="21.6" transform="rotate(-89.5045 7.57333 100.859)" fill="#99CC33"/>
<path d="M0.311325 107.996L36.31 108.307L0.622653 71.9974L0.311325 107.996Z" fill="#85DEC0"/>
<path d="M36.6213 72.3088L0.622652 71.9975L36.31 108.307L36.6213 72.3088Z" fill="#26946F"/>
<rect x="7.57333" y="100.859" width="21.6" height="21.6" transform="rotate(-89.5045 7.57333 100.859)" fill="#33CB98"/>
<path d="M0.622658 71.9973L36.6213 72.3086L0.933986 35.9987L0.622658 71.9973Z" fill="#BBDC71"/>
<path d="M36.9326 36.3101L0.933985 35.9987L36.6213 72.3087L36.9326 36.3101Z" fill="#85AF2F"/>
<rect x="7.88466" y="64.8599" width="21.6" height="21.6" transform="rotate(-89.5045 7.88466 64.8599)" fill="#99CC33"/>
<path d="M0.622658 71.9973L36.6213 72.3086L0.933986 35.9987L0.622658 71.9973Z" fill="#85DEC0"/>
<path d="M36.9326 36.3101L0.933985 35.9987L36.6213 72.3087L36.9326 36.3101Z" fill="#26946F"/>
<rect x="7.88466" y="64.8599" width="21.6" height="21.6" transform="rotate(-89.5045 7.88466 64.8599)" fill="#33CB98"/>
<path d="M0.933983 35.9988L36.9326 36.3101L1.24531 0.000124156L0.933983 35.9988Z" fill="#BBDC71"/>
<path d="M37.244 0.311523L1.24531 0.00019561L36.9326 36.3102L37.244 0.311523Z" fill="#85AF2F"/>
<rect x="8.19598" y="28.8613" width="21.6" height="21.6" transform="rotate(-89.5045 8.19598 28.8613)" fill="#99CC33"/>
<path d="M0.933983 35.9988L36.9326 36.3101L1.24531 0.000124156L0.933983 35.9988Z" fill="#85DEC0"/>
<path d="M37.244 0.311523L1.24531 0.00019561L36.9326 36.3102L37.244 0.311523Z" fill="#26946F"/>
<rect x="8.19598" y="28.8613" width="21.6" height="21.6" transform="rotate(-89.5045 8.19598 28.8613)" fill="#33CB98"/>
</svg>
