<svg width="36" height="108" viewBox="0 0 36 108" fill="none" xmlns="http://www.w3.org/2000/svg">
<path d="M0 108L36 108L0 72L0 108Z" fill="#BBDC71"/>
<path d="M36 72L-1.57952e-05 72L36 108L36 72Z" fill="#85AF2F"/>
<rect x="7.2" y="100.8" width="21.6" height="21.6" transform="rotate(-90 7.2 100.8)" fill="#99CC33"/>
<path d="M0 108L36 108L0 72L0 108Z" fill="#BBDC71"/>
<path d="M36 72L-1.57952e-05 72L36 108L36 72Z" fill="#85AF2F"/>
<rect x="7.2" y="100.8" width="21.6" height="21.6" transform="rotate(-90 7.2 100.8)" fill="#99CC33"/>
<path d="M0 72L36 72L0 36L0 72Z" fill="#BBDC71"/>
<path d="M36 36L-1.57952e-05 36L36 72L36 36Z" fill="#85AF2F"/>
<rect x="7.2" y="64.8" width="21.6" height="21.6" transform="rotate(-90 7.2 64.8)" fill="#99CC33"/>
<path d="M0 72L36 72L0 36L0 72Z" fill="#BBDC71"/>
<path d="M36 36L-1.57952e-05 36L36 72L36 36Z" fill="#85AF2F"/>
<rect x="7.2" y="64.8" width="21.6" height="21.6" transform="rotate(-90 7.2 64.8)" fill="#99CC33"/>
<path d="M0 36L36 36L0 -5.36442e-07L0 36Z" fill="#BBDC71"/>
<path d="M36 0L-1.57952e-05 0L36 36L36 0Z" fill="#85AF2F"/>
<rect x="7.2" y="28.8" width="21.6" height="21.6" transform="rotate(-90 7.2 28.8)" fill="#99CC33"/>
<path d="M0 36L36 36L0 -5.36442e-07L0 36Z" fill="#BBDC71"/>
<path d="M36 0L-1.57952e-05 0L36 36L36 0Z" fill="#85AF2F"/>
<rect x="7.2" y="28.8" width="21.6" height="21.6" transform="rotate(-90 7.2 28.8)" fill="#99CC33"/>
</svg>
